<svg width="48" height="48" viewBox="0 0 48 48" fill="none" xmlns="http://www.w3.org/2000/svg">
<path d="M11.479 7.03063L11.4791 7.03083L12.4511 10.9213L12.5458 11.3001H12.9362H40.8006C40.9034 11.3002 41.0049 11.323 41.0979 11.3667C41.1909 11.4105 41.2732 11.4742 41.3388 11.5533C41.4044 11.6324 41.4518 11.725 41.4776 11.8245C41.5034 11.924 41.507 12.0279 41.4881 12.1288C41.4881 12.1289 41.4881 12.1289 41.4881 12.129L37.888 31.3294L37.8879 31.3296C37.8579 31.49 37.7728 31.6349 37.6473 31.7392C37.5217 31.8435 37.3637 31.9007 37.2005 31.9008H34.8009H18.0004H15.6008C15.4376 31.9007 15.2795 31.8435 15.154 31.7392C15.0285 31.6349 14.9434 31.49 14.9133 31.3296L14.9133 31.3293L11.3156 12.1647L11.3129 12.1504L11.3093 12.1362L10.3493 8.2793L10.2549 7.90007H9.86412H7.20004C7.01438 7.90007 6.83632 7.82632 6.70504 7.69504C6.57375 7.56376 6.5 7.3857 6.5 7.20004C6.5 7.01438 6.57375 6.83632 6.70504 6.70504C6.83632 6.57375 7.01438 6.5 7.20004 6.5L10.8 6.5C10.8 6.5 10.8001 6.5 10.8001 6.5C10.8001 6.5 10.8001 6.5 10.8001 6.5C10.9563 6.50007 11.1079 6.55232 11.2309 6.64844C11.3539 6.74459 11.4413 6.87912 11.479 7.03063ZM14.9597 34.1603C15.7661 33.3539 16.8599 32.9008 18.0004 32.9008C19.1408 32.9008 20.2346 33.3539 21.041 34.1603C21.8475 34.9667 22.3005 36.0605 22.3005 37.201C22.3005 38.3414 21.8475 39.4352 21.041 40.2416C20.2346 41.0481 19.1408 41.5011 18.0004 41.5011C16.8599 41.5011 15.7661 41.0481 14.9597 40.2416C14.1533 39.4352 13.7002 38.3414 13.7002 37.201C13.7002 36.0605 14.1533 34.9667 14.9597 34.1603ZM31.7602 34.1603C32.5667 33.3539 33.6604 32.9008 34.8009 32.9008C35.9414 32.9008 37.0351 33.3539 37.8416 34.1603C38.648 34.9667 39.101 36.0605 39.101 37.201C39.101 38.3414 38.648 39.4352 37.8416 40.2416C37.0351 41.0481 35.9414 41.5011 34.8009 41.5011C33.6604 41.5011 32.5667 41.0481 31.7602 40.2416C30.9538 39.4352 30.5007 38.3414 30.5007 37.201C30.5007 36.0605 30.9538 34.9667 31.7602 34.1603ZM20.051 35.1503C19.5072 34.6064 18.7695 34.3009 18.0004 34.3009C17.2312 34.3009 16.4936 34.6064 15.9497 35.1503C15.4058 35.6942 15.1003 36.4318 15.1003 37.201C15.1003 37.9701 15.4058 38.7078 15.9497 39.2516C16.4936 39.7955 17.2312 40.101 18.0004 40.101C18.7695 40.101 19.5072 39.7955 20.051 39.2516C20.5949 38.7078 20.9004 37.9701 20.9004 37.201C20.9004 36.4318 20.5949 35.6942 20.051 35.1503ZM36.8516 35.1503C36.3077 34.6064 35.57 34.3009 34.8009 34.3009C34.0317 34.3009 33.2941 34.6064 32.7502 35.1503C32.2064 35.6942 31.9008 36.4318 31.9008 37.201C31.9008 37.9701 32.2064 38.7078 32.7502 39.2516C33.2941 39.7955 34.0317 40.101 34.8009 40.101C35.57 40.101 36.3077 39.7955 36.8516 39.2516C37.3954 38.7078 37.701 37.9701 37.701 37.201C37.701 36.4318 37.3954 35.6942 36.8516 35.1503Z" fill="#FEFFEF" stroke="#00A99D"/>
</svg>
