<svg width="36" height="36" viewBox="0 0 36 36" style="fill: var(--color_fill)"  xmlns="http://www.w3.org/2000/svg">
<path d="M0.98546 14.5048L16.7354 0.946094C16.7354 0.946078 16.7354 0.946062 16.7355 0.946046C17.0599 0.666888 17.5138 0.5 18 0.5C18.4862 0.5 18.9401 0.666888 19.2645 0.946046C19.2646 0.946062 19.2646 0.946078 19.2646 0.946094L35.0145 14.5048L35.0146 14.5048C35.3367 14.782 35.4999 15.1405 35.5 15.4953C35.5 15.4953 35.5 15.4954 35.5 15.4954V34.063C35.5 34.4179 35.3369 34.7765 35.0148 35.0537C34.6904 35.333 34.2363 35.5 33.75 35.5H23V22.4413V21.9413H22.5H13.5H13V22.4413V35.5H2.25C1.76369 35.5 1.30963 35.333 0.98522 35.0537C0.663139 34.7765 0.5 34.4179 0.5 34.063L0.5 15.4954C0.5 15.4954 0.5 15.4954 0.5 15.4953C0.500119 15.1405 0.663322 14.782 0.985404 14.5048L0.660654 14.1275L0.98546 14.5048Z" stroke="#00A99D"/>
</svg>
