<svg width="16" height="16" viewBox="0 0 16 16" fill="none" xmlns="http://www.w3.org/2000/svg">
<path d="M15 15.5H10.5V9.97389V9.47389H10H6H5.5V9.97389V15.5H1C0.845207 15.5 0.709096 15.4464 0.619103 15.3689C0.531443 15.2935 0.5 15.2086 0.5 15.1391L0.5 6.88692C0.5 6.8869 0.5 6.88682 0.5 6.8868C0.500039 6.81734 0.531509 6.73257 0.619153 6.65714L0.293716 6.27899L0.61921 6.65709L7.61915 0.63103C7.70915 0.553578 7.84524 0.5 8 0.5C8.15473 0.5 8.29079 0.553556 8.38079 0.630981C8.38081 0.630997 8.38083 0.631013 8.38085 0.63103L15.3808 6.65709L15.3808 6.65714C15.4685 6.73255 15.4999 6.81735 15.5 6.8868C15.5 6.88684 15.5 6.88688 15.5 6.88692V15.1391C15.5 15.2086 15.4686 15.2935 15.3809 15.3689C15.2909 15.4464 15.1548 15.5 15 15.5Z" fill="#00A99D" stroke="#00A99D"/>
</svg>
