<svg width="18" height="18" viewBox="0 0 18 18" fill="none" xmlns="http://www.w3.org/2000/svg">
<path d="M8.13689 1.20417C8.40093 1.07027 8.69798 1 9 1C9.30202 1 9.59907 1.07027 9.86311 1.20417L16.5431 4.59223C16.6816 4.66256 16.797 4.76542 16.8773 4.89015C16.9577 5.01489 17 5.15696 17 5.30167V11.9861C16.9999 12.2756 16.9151 12.5598 16.7543 12.8093C16.5934 13.0587 16.3625 13.2644 16.0853 13.4049L9.86311 16.5625C9.59907 16.6964 9.30202 16.7667 9 16.7667C8.69798 16.7667 8.40093 16.6964 8.13689 16.5625L1.91467 13.4049C1.63765 13.2645 1.40678 13.0589 1.24597 12.8096C1.08515 12.5603 1.00023 12.2762 1 11.9869V5.30167C0.999993 5.15696 1.04235 5.01489 1.12268 4.89015C1.20301 4.76542 1.3184 4.66256 1.45689 4.59223L8.13689 1.20417Z" stroke="white" stroke-linecap="round" stroke-linejoin="round"/>
<path d="M4.99984 2.79504L12.9998 6.85358V9.69456M3.6665 9.14909L6.33317 10.5063" stroke="white" stroke-linecap="round" stroke-linejoin="round"/>
<path d="M1 4.82434L9 8.88288M9 8.88288L17 4.82434M9 8.88288V17" stroke="white" stroke-linejoin="round"/>
</svg>
