<svg width="16" height="16" viewBox="0 0 16 16" fill="none" xmlns="http://www.w3.org/2000/svg">
<path d="M5.11111 2H2.88889C2.39797 2 2 2.39797 2 2.88889V5.11111C2 5.60203 2.39797 6 2.88889 6H5.11111C5.60203 6 6 5.60203 6 5.11111V2.88889C6 2.39797 5.60203 2 5.11111 2Z" stroke="white" stroke-linecap="round" stroke-linejoin="round"/>
<path d="M13.1111 2H10.8889C10.398 2 10 2.39797 10 2.88889V5.11111C10 5.60203 10.398 6 10.8889 6H13.1111C13.602 6 14 5.60203 14 5.11111V2.88889C14 2.39797 13.602 2 13.1111 2Z" stroke="white" stroke-linecap="round" stroke-linejoin="round"/>
<path d="M13.1111 10H10.8889C10.398 10 10 10.398 10 10.8889V13.1111C10 13.602 10.398 14 10.8889 14H13.1111C13.602 14 14 13.602 14 13.1111V10.8889C14 10.398 13.602 10 13.1111 10Z" stroke="white" stroke-linecap="round" stroke-linejoin="round"/>
<path d="M5.11111 10H2.88889C2.39797 10 2 10.398 2 10.8889V13.1111C2 13.602 2.39797 14 2.88889 14H5.11111C5.60203 14 6 13.602 6 13.1111V10.8889C6 10.398 5.60203 10 5.11111 10Z" stroke="white" stroke-linecap="round" stroke-linejoin="round"/>
</svg>
